<?xml version="1.0" encoding="UTF-8" standalone="no"?>
<svg
   xmlns:dc="http://purl.org/dc/elements/1.1/"
   xmlns:cc="http://creativecommons.org/ns#"
   xmlns:rdf="http://www.w3.org/1999/02/22-rdf-syntax-ns#"
   xmlns:svg="http://www.w3.org/2000/svg"
   xmlns="http://www.w3.org/2000/svg"
   xmlns:sodipodi="http://sodipodi.sourceforge.net/DTD/sodipodi-0.dtd"
   xmlns:inkscape="http://www.inkscape.org/namespaces/inkscape"
   sodipodi:docname="back1.svg"
   inkscape:version="1.0 (4035a4fb49, 2020-05-01)"
   id="svg8"
   version="1.1"
   viewBox="0 0 122.93048 176.38889"
   height="176.38889mm"
   width="122.93048mm">
  <defs
     id="defs2">
    <clipPath
       clipPathUnits="userSpaceOnUse"
       id="clipPath638">
      <path
         d="M 0,0 H 750 V 500 H 0 Z"
         id="path636" />
    </clipPath>
  </defs>
  <sodipodi:namedview
     inkscape:window-maximized="1"
     inkscape:window-y="-8"
     inkscape:window-x="-8"
     inkscape:window-height="705"
     inkscape:window-width="1366"
     fit-margin-bottom="0"
     fit-margin-right="0"
     fit-margin-left="0"
     fit-margin-top="0"
     showgrid="false"
     inkscape:document-rotation="0"
     inkscape:current-layer="g18"
     inkscape:document-units="mm"
     inkscape:cy="457.66055"
     inkscape:cx="603.48186"
     inkscape:zoom="0.35"
     inkscape:pageshadow="2"
     inkscape:pageopacity="0.0"
     borderopacity="1.0"
     bordercolor="#666666"
     pagecolor="#ffffff"
     id="base" />
  <metadata
     id="metadata5">
    <rdf:RDF>
      <cc:Work
         rdf:about="">
        <dc:format>image/svg+xml</dc:format>
        <dc:type
           rdf:resource="http://purl.org/dc/dcmitype/StillImage" />
        <dc:title></dc:title>
      </cc:Work>
    </rdf:RDF>
  </metadata>
  <g
     transform="translate(48.380953,-53.924605)"
     id="layer1"
     inkscape:groupmode="layer"
     inkscape:label="Layer 1">
    <g
       id="g18"
       inkscape:label="5424120"
       transform="matrix(0.35277777,0,0,-0.35277777,-48.380953,230.31349)">
      <path
         d="M 0,0 H 348.46436 V 500 H 0 Z"
         style="fill:#ffffff;fill-opacity:1;fill-rule:nonzero;stroke:none;stroke-width:0.68163"
         id="path20" />
      <g
         transform="matrix(1,0,0,-1,0,500)"
         id="g632">
        <g
           id="g634"
           clip-path="url(#clipPath638)">
          <g
             id="g640"
             transform="translate(218.6539,85.4753)">
            <path
               d="M 0,0 7.706,7.706 15.413,0"
               style="fill:none;stroke:#363c40;stroke-width:0.75;stroke-linecap:butt;stroke-linejoin:miter;stroke-miterlimit:10;stroke-dasharray:none;stroke-opacity:1"
               id="path642" />
          </g>
          <g
             id="g644"
             transform="translate(218.6539,75.8571)">
            <path
               d="M 0,0 7.706,7.706 15.413,0"
               style="fill:none;stroke:#363c40;stroke-width:0.75;stroke-linecap:butt;stroke-linejoin:miter;stroke-miterlimit:10;stroke-dasharray:none;stroke-opacity:1"
               id="path646" />
          </g>
          <g
             id="g648"
             transform="translate(218.6539,66.239)">
            <path
               d="M 0,0 7.706,7.706 15.413,0"
               style="fill:none;stroke:#363c40;stroke-width:0.75;stroke-linecap:butt;stroke-linejoin:miter;stroke-miterlimit:10;stroke-dasharray:none;stroke-opacity:1"
               id="path650" />
          </g>
          <g
             id="g652"
             transform="translate(218.6539,56.6208)">
            <path
               d="M 0,0 7.706,7.706 15.413,0"
               style="fill:none;stroke:#363c40;stroke-width:0.75;stroke-linecap:butt;stroke-linejoin:miter;stroke-miterlimit:10;stroke-dasharray:none;stroke-opacity:1"
               id="path654" />
          </g>
          <g
             id="g656"
             transform="translate(218.6539,47.0016)">
            <path
               d="M 0,0 7.706,7.706 15.413,0"
               style="fill:none;stroke:#363c40;stroke-width:0.75;stroke-linecap:butt;stroke-linejoin:miter;stroke-miterlimit:10;stroke-dasharray:none;stroke-opacity:1"
               id="path658" />
          </g>
          <g
             id="g660"
             transform="translate(708.733,408.7477)">
            <path
               d="M 0,0 -7.706,-7.706 -15.413,0"
               style="fill:none;stroke:#363c40;stroke-width:0.75;stroke-linecap:butt;stroke-linejoin:miter;stroke-miterlimit:10;stroke-dasharray:none;stroke-opacity:1"
               id="path662" />
          </g>
          <g
             id="g664"
             transform="translate(708.733,418.3664)">
            <path
               d="M 0,0 -7.706,-7.707 -15.413,0"
               style="fill:none;stroke:#363c40;stroke-width:0.75;stroke-linecap:butt;stroke-linejoin:miter;stroke-miterlimit:10;stroke-dasharray:none;stroke-opacity:1"
               id="path666" />
          </g>
          <g
             id="g668"
             transform="translate(708.733,427.9846)">
            <path
               d="M 0,0 -7.706,-7.706 -15.413,0"
               style="fill:none;stroke:#363c40;stroke-width:0.75;stroke-linecap:butt;stroke-linejoin:miter;stroke-miterlimit:10;stroke-dasharray:none;stroke-opacity:1"
               id="path670" />
          </g>
          <g
             id="g672"
             transform="translate(708.733,437.6032)">
            <path
               d="M 0,0 -7.706,-7.707 -15.413,0"
               style="fill:none;stroke:#363c40;stroke-width:0.75;stroke-linecap:butt;stroke-linejoin:miter;stroke-miterlimit:10;stroke-dasharray:none;stroke-opacity:1"
               id="path674" />
          </g>
          <g
             id="g676"
             transform="translate(708.733,447.2214)">
            <path
               d="M 0,0 -7.706,-7.706 -15.413,0"
               style="fill:none;stroke:#363c40;stroke-width:0.75;stroke-linecap:butt;stroke-linejoin:miter;stroke-miterlimit:10;stroke-dasharray:none;stroke-opacity:1"
               id="path678" />
          </g>
          <g
             id="g680"
             transform="translate(599.9078,127.8884)">
            <path
               d="M 0,0 7.706,7.706 15.412,0"
               style="fill:none;stroke:#363c40;stroke-width:0.75;stroke-linecap:butt;stroke-linejoin:miter;stroke-miterlimit:10;stroke-dasharray:none;stroke-opacity:1"
               id="path682" />
          </g>
          <g
             id="g684"
             transform="translate(599.9078,118.2702)">
            <path
               d="M 0,0 7.706,7.706 15.412,0"
               style="fill:none;stroke:#363c40;stroke-width:0.75;stroke-linecap:butt;stroke-linejoin:miter;stroke-miterlimit:10;stroke-dasharray:none;stroke-opacity:1"
               id="path686" />
          </g>
          <g
             id="g688"
             transform="translate(599.9078,108.6511)">
            <path
               d="M 0,0 7.706,7.707 15.412,0"
               style="fill:none;stroke:#363c40;stroke-width:0.75;stroke-linecap:butt;stroke-linejoin:miter;stroke-miterlimit:10;stroke-dasharray:none;stroke-opacity:1"
               id="path690" />
          </g>
          <g
             id="g692"
             transform="translate(599.9078,99.0329)">
            <path
               d="M 0,0 7.706,7.706 15.412,0"
               style="fill:none;stroke:#363c40;stroke-width:0.75;stroke-linecap:butt;stroke-linejoin:miter;stroke-miterlimit:10;stroke-dasharray:none;stroke-opacity:1"
               id="path694" />
          </g>
          <g
             id="g696"
             transform="translate(599.9078,89.4147)">
            <path
               d="M 0,0 7.706,7.706 15.412,0"
               style="fill:none;stroke:#363c40;stroke-width:0.75;stroke-linecap:butt;stroke-linejoin:miter;stroke-miterlimit:10;stroke-dasharray:none;stroke-opacity:1"
               id="path698" />
          </g>
          <g
             id="g700"
             transform="translate(357.1539,493.0939)">
            <path
               d="M 0,0 7.706,7.707 15.413,0"
               style="fill:none;stroke:#363c40;stroke-width:0.75;stroke-linecap:butt;stroke-linejoin:miter;stroke-miterlimit:10;stroke-dasharray:none;stroke-opacity:1"
               id="path702" />
          </g>
          <g
             id="g704"
             transform="translate(357.1539,483.4758)">
            <path
               d="M 0,0 7.706,7.706 15.413,0"
               style="fill:none;stroke:#363c40;stroke-width:0.75;stroke-linecap:butt;stroke-linejoin:miter;stroke-miterlimit:10;stroke-dasharray:none;stroke-opacity:1"
               id="path706" />
          </g>
          <g
             id="g708"
             transform="translate(357.1539,473.8571)">
            <path
               d="M 0,0 7.706,7.706 15.413,0"
               style="fill:none;stroke:#363c40;stroke-width:0.75;stroke-linecap:butt;stroke-linejoin:miter;stroke-miterlimit:10;stroke-dasharray:none;stroke-opacity:1"
               id="path710" />
          </g>
          <g
             id="g712"
             transform="translate(357.1539,464.2385)">
            <path
               d="M 0,0 7.706,7.707 15.413,0"
               style="fill:none;stroke:#363c40;stroke-width:0.75;stroke-linecap:butt;stroke-linejoin:miter;stroke-miterlimit:10;stroke-dasharray:none;stroke-opacity:1"
               id="path714" />
          </g>
          <g
             id="g716"
             transform="translate(79.3756,215.3425)">
            <path
               d="M 0,0 -7.707,-7.707 -15.413,0"
               style="fill:none;stroke:#363c40;stroke-width:0.75;stroke-linecap:butt;stroke-linejoin:miter;stroke-miterlimit:10;stroke-dasharray:none;stroke-opacity:1"
               id="path718" />
          </g>
          <g
             id="g720"
             transform="translate(79.3756,224.9606)">
            <path
               d="M 0,0 -7.707,-7.706 -15.413,0"
               style="fill:none;stroke:#363c40;stroke-width:0.75;stroke-linecap:butt;stroke-linejoin:miter;stroke-miterlimit:10;stroke-dasharray:none;stroke-opacity:1"
               id="path722" />
          </g>
          <g
             id="g724"
             transform="translate(79.3756,234.5788)">
            <path
               d="M 0,0 -7.707,-7.706 -15.413,0"
               style="fill:none;stroke:#363c40;stroke-width:0.75;stroke-linecap:butt;stroke-linejoin:miter;stroke-miterlimit:10;stroke-dasharray:none;stroke-opacity:1"
               id="path726" />
          </g>
          <g
             id="g728"
             transform="translate(79.3756,244.197)">
            <path
               d="M 0,0 -7.707,-7.706 -15.413,0"
               style="fill:none;stroke:#363c40;stroke-width:0.75;stroke-linecap:butt;stroke-linejoin:miter;stroke-miterlimit:10;stroke-dasharray:none;stroke-opacity:1"
               id="path730" />
          </g>
          <g
             id="g732"
             transform="translate(79.3756,253.8156)">
            <path
               d="M 0,0 -7.707,-7.707 -15.413,0"
               style="fill:none;stroke:#363c40;stroke-width:0.75;stroke-linecap:butt;stroke-linejoin:miter;stroke-miterlimit:10;stroke-dasharray:none;stroke-opacity:1"
               id="path734" />
          </g>
          <g
             id="g844"
             transform="translate(290.4435,444.2844)">
            <path
               d="m 0,0 c 0,-3.216 -2.607,-5.823 -5.823,-5.823 -3.216,0 -5.823,2.607 -5.823,5.823 0,3.216 2.607,5.823 5.823,5.823 C -2.607,5.823 0,3.216 0,0 Z"
               style="fill:none;stroke:#00a1ff;stroke-width:0.5;stroke-linecap:butt;stroke-linejoin:miter;stroke-miterlimit:10;stroke-dasharray:none;stroke-opacity:1"
               id="path846" />
          </g>
          <g
             id="g848"
             transform="translate(742.1823,500.0002)">
            <path
               d="m 0,0 c 0,-3.216 -2.606,-5.823 -5.822,-5.823 -3.216,0 -5.823,2.607 -5.823,5.823 0,3.216 2.607,5.823 5.823,5.823 C -2.606,5.823 0,3.216 0,0 Z"
               style="fill:none;stroke:#00a1ff;stroke-width:3;stroke-linecap:butt;stroke-linejoin:miter;stroke-miterlimit:10;stroke-dasharray:none;stroke-opacity:1"
               id="path850" />
          </g>
          <g
             id="g852"
             transform="translate(44.5773,434.4601)">
            <path
               d="m 0,0 c 0,-3.216 -2.607,-5.823 -5.823,-5.823 -3.216,0 -5.823,2.607 -5.823,5.823 0,3.216 2.607,5.823 5.823,5.823 C -2.607,5.823 0,3.216 0,0 Z"
               style="fill:none;stroke:#00a1ff;stroke-width:3;stroke-linecap:butt;stroke-linejoin:miter;stroke-miterlimit:10;stroke-dasharray:none;stroke-opacity:1"
               id="path854" />
          </g>
          <g
             id="g856"
             transform="translate(673.36,333.945)">
            <path
               d="m 0,0 c 0,-3.216 -2.606,-5.823 -5.822,-5.823 -3.216,0 -5.824,2.607 -5.824,5.823 0,3.216 2.608,5.823 5.824,5.823 C -2.606,5.823 0,3.216 0,0 Z"
               style="fill:none;stroke:#00a1ff;stroke-width:3;stroke-linecap:butt;stroke-linejoin:miter;stroke-miterlimit:10;stroke-dasharray:none;stroke-opacity:1"
               id="path858" />
          </g>
          <g
             id="g860"
             transform="translate(684.3151,135.5876)">
            <path
               d="m 0,0 c 0,-3.216 -2.607,-5.822 -5.823,-5.822 -3.216,0 -5.823,2.606 -5.823,5.822 0,3.216 2.607,5.823 5.823,5.823 C -2.607,5.823 0,3.216 0,0 Z"
               style="fill:none;stroke:#00a1ff;stroke-width:0.5;stroke-linecap:butt;stroke-linejoin:miter;stroke-miterlimit:10;stroke-dasharray:none;stroke-opacity:1"
               id="path862" />
          </g>
          <g
             id="g864"
             transform="translate(147.5778,131.2292)">
            <path
               d="m 0,0 c 0,-3.216 -2.607,-5.822 -5.823,-5.822 -3.216,0 -5.823,2.606 -5.823,5.822 0,3.216 2.607,5.823 5.823,5.823 C -2.607,5.823 0,3.216 0,0 Z"
               style="fill:none;stroke:#00a1ff;stroke-width:0.5;stroke-linecap:butt;stroke-linejoin:miter;stroke-miterlimit:10;stroke-dasharray:none;stroke-opacity:1"
               id="path866" />
          </g>
          <g
             id="g868"
             transform="translate(448.4996,33.8718)">
            <path
               d="m 0,0 c 0,-3.216 -2.607,-5.823 -5.823,-5.823 -3.216,0 -5.823,2.607 -5.823,5.823 0,3.216 2.607,5.822 5.823,5.822 C -2.607,5.822 0,3.216 0,0 Z"
               style="fill:none;stroke:#00a1ff;stroke-width:3;stroke-linecap:butt;stroke-linejoin:miter;stroke-miterlimit:10;stroke-dasharray:none;stroke-opacity:1"
               id="path870" />
          </g>
          <g
             id="g872"
             transform="translate(21.7223,39.694)">
            <path
               d="m 0,0 c 0,-3.216 -2.607,-5.822 -5.823,-5.822 -3.216,0 -5.823,2.606 -5.823,5.822 0,3.216 2.607,5.822 5.823,5.822 C -2.607,5.822 0,3.216 0,0 Z"
               style="fill:none;stroke:#00a1ff;stroke-width:3;stroke-linecap:butt;stroke-linejoin:miter;stroke-miterlimit:10;stroke-dasharray:none;stroke-opacity:1"
               id="path874" />
          </g>
          <g
             id="g876"
             transform="translate(96.5695,323.821)">
            <path
               d="M 0,0 40.013,40.013"
               style="fill:none;stroke:#363c40;stroke-width:0.5;stroke-linecap:butt;stroke-linejoin:miter;stroke-miterlimit:10;stroke-dasharray:none;stroke-opacity:1"
               id="path878" />
          </g>
          <g
             id="g880"
             transform="translate(729.9938,26.488)">
            <path
               d="M 0,0 40.013,40.013"
               style="fill:none;stroke:#363c40;stroke-width:0.5;stroke-linecap:butt;stroke-linejoin:miter;stroke-miterlimit:10;stroke-dasharray:none;stroke-opacity:1"
               id="path882" />
          </g>
          <g
             id="g884"
             transform="translate(-20.0062,422.988)">
            <path
               d="M 0,0 40.013,40.012"
               style="fill:none;stroke:#363c40;stroke-width:0.5;stroke-linecap:butt;stroke-linejoin:miter;stroke-miterlimit:10;stroke-dasharray:none;stroke-opacity:1"
               id="path886" />
          </g>
          <g
             id="g888"
             transform="translate(546.403,434.9816)">
            <path
               d="M 0,0 40.013,40.013"
               style="fill:none;stroke:#363c40;stroke-width:0.5;stroke-linecap:butt;stroke-linejoin:miter;stroke-miterlimit:10;stroke-dasharray:none;stroke-opacity:1"
               id="path890" />
          </g>
          <g
             id="g892"
             transform="translate(552.485,389.0695)">
            <path
               d="M 0,0 40.012,40.013"
               style="fill:none;stroke:#00a1ff;stroke-width:0.5;stroke-linecap:butt;stroke-linejoin:miter;stroke-miterlimit:10;stroke-dasharray:none;stroke-opacity:1"
               id="path894" />
          </g>
          <g
             id="g896"
             transform="translate(643.485,148.07)">
            <path
               d="M 0,0 40.012,40.012"
               style="fill:none;stroke:#00a1ff;stroke-width:0.5;stroke-linecap:butt;stroke-linejoin:miter;stroke-miterlimit:10;stroke-dasharray:none;stroke-opacity:1"
               id="path898" />
          </g>
          <g
             id="g900"
             transform="translate(554.818,-17.597)">
            <path
               d="M 0,0 40.013,40.013"
               style="fill:none;stroke:#00a1ff;stroke-width:0.5;stroke-linecap:butt;stroke-linejoin:miter;stroke-miterlimit:10;stroke-dasharray:none;stroke-opacity:1"
               id="path902" />
          </g>
          <g
             id="g904"
             transform="translate(270.9845,26.488)">
            <path
               d="M 0,0 40.013,40.013"
               style="fill:none;stroke:#00a1ff;stroke-width:0.5;stroke-linecap:butt;stroke-linejoin:miter;stroke-miterlimit:10;stroke-dasharray:none;stroke-opacity:1"
               id="path906" />
          </g>
          <g
             id="g908"
             transform="translate(9.444,-13.971)">
            <path
               d="M 0,0 40.012,40.013"
               style="fill:none;stroke:#00a1ff;stroke-width:0.5;stroke-linecap:butt;stroke-linejoin:miter;stroke-miterlimit:10;stroke-dasharray:none;stroke-opacity:1"
               id="path910" />
          </g>
          <g
             id="g912"
             transform="translate(-10.5624,203.362)">
            <path
               d="M 0,0 40.012,40.013"
               style="fill:none;stroke:#00a1ff;stroke-width:0.5;stroke-linecap:butt;stroke-linejoin:miter;stroke-miterlimit:10;stroke-dasharray:none;stroke-opacity:1"
               id="path914" />
          </g>
          <g
             id="g916"
             transform="translate(245.7741,484.3591)">
            <path
               d="M 0,0 40.012,40.012"
               style="fill:none;stroke:#00a1ff;stroke-width:0.5;stroke-linecap:butt;stroke-linejoin:miter;stroke-miterlimit:10;stroke-dasharray:none;stroke-opacity:1"
               id="path918" />
          </g>
          <g
             id="g920"
             transform="translate(546.403,487.9704)">
            <path
               d="M 0,0 40.013,40.013"
               style="fill:none;stroke:#00a1ff;stroke-width:0.5;stroke-linecap:butt;stroke-linejoin:miter;stroke-miterlimit:10;stroke-dasharray:none;stroke-opacity:1"
               id="path922" />
          </g>
          <g
             id="g924"
             transform="translate(268.1696,-20.0062)">
            <path
               d="M 0,0 40.013,40.013"
               style="fill:none;stroke:#363c40;stroke-width:0.5;stroke-linecap:butt;stroke-linejoin:miter;stroke-miterlimit:10;stroke-dasharray:none;stroke-opacity:1"
               id="path926" />
          </g>
          <g
             id="g928"
             transform="translate(60.2892,86.488)">
            <path
               d="M 0,0 40.013,40.013"
               style="fill:none;stroke:#363c40;stroke-width:0.5;stroke-linecap:butt;stroke-linejoin:miter;stroke-miterlimit:10;stroke-dasharray:none;stroke-opacity:1"
               id="path930" />
          </g>
          <g
             id="g932"
             transform="translate(512.903,72.988)">
            <path
               d="M 0,0 40.013,40.013"
               style="fill:none;stroke:#363c40;stroke-width:0.5;stroke-linecap:butt;stroke-linejoin:miter;stroke-miterlimit:10;stroke-dasharray:none;stroke-opacity:1"
               id="path934" />
          </g>
          <g
             id="g936"
             transform="translate(734.403,454.988)">
            <path
               d="M 0,0 40.013,40.012"
               style="fill:none;stroke:#363c40;stroke-width:0.5;stroke-linecap:butt;stroke-linejoin:miter;stroke-miterlimit:10;stroke-dasharray:none;stroke-opacity:1"
               id="path938" />
          </g>
          <g
             id="g940"
             transform="translate(302.903,479.9938)">
            <path
               d="M 0,0 40.012,40.013"
               style="fill:none;stroke:#363c40;stroke-width:0.5;stroke-linecap:butt;stroke-linejoin:miter;stroke-miterlimit:10;stroke-dasharray:none;stroke-opacity:1"
               id="path942" />
          </g>
          <g
             id="g944"
             transform="translate(729.9938,313.7409)">
            <path
               d="M 0,0 40.013,40.012"
               style="fill:none;stroke:#363c40;stroke-width:0.5;stroke-linecap:butt;stroke-linejoin:miter;stroke-miterlimit:10;stroke-dasharray:none;stroke-opacity:1"
               id="path946" />
          </g>
          <g
             id="g948"
             transform="translate(178.6515,399.57)">
            <path
               d="m 0,0 c 0,-0.713 -0.578,-1.292 -1.292,-1.292 -0.713,0 -1.291,0.579 -1.291,1.292 0,0.713 0.578,1.292 1.291,1.292 C -0.578,1.292 0,0.713 0,0"
               style="fill:#00a1ff;fill-opacity:1;fill-rule:nonzero;stroke:none"
               id="path950" />
          </g>
          <g
             id="g952"
             transform="translate(100.985,178.32)">
            <path
               d="m 0,0 c 0,-0.713 -0.578,-1.292 -1.292,-1.292 -0.713,0 -1.291,0.579 -1.291,1.292 0,0.713 0.578,1.292 1.291,1.292 C -0.578,1.292 0,0.713 0,0"
               style="fill:#00a1ff;fill-opacity:1;fill-rule:nonzero;stroke:none"
               id="path954" />
          </g>
          <g
             id="g956"
             transform="translate(727.36,369.945)">
            <path
               d="m 0,0 c 0,-0.713 -0.578,-1.292 -1.292,-1.292 -0.713,0 -1.291,0.579 -1.291,1.292 0,0.713 0.578,1.292 1.291,1.292 C -0.578,1.292 0,0.713 0,0"
               style="fill:#00a1ff;fill-opacity:1;fill-rule:nonzero;stroke:none"
               id="path958" />
          </g>
          <g
             id="g960"
             transform="translate(719.652,46.4938)">
            <path
               d="m 0,0 c 0,-0.713 -0.578,-1.291 -1.292,-1.291 -0.714,0 -1.292,0.578 -1.292,1.291 0,0.714 0.578,1.292 1.292,1.292 C -0.578,1.292 0,0.714 0,0"
               style="fill:#00a1ff;fill-opacity:1;fill-rule:nonzero;stroke:none"
               id="path962" />
          </g>
          <g
             id="g964"
             transform="translate(393.777,20.945)">
            <path
               d="m 0,0 c 0,-0.714 -0.578,-1.292 -1.292,-1.292 -0.714,0 -1.292,0.578 -1.292,1.292 0,0.714 0.578,1.292 1.292,1.292 C -0.578,1.292 0,0.714 0,0"
               style="fill:#00a1ff;fill-opacity:1;fill-rule:nonzero;stroke:none"
               id="path966" />
          </g>
          <g
             id="g968"
             transform="translate(397.652,474.9943)">
            <path
               d="m 0,0 c 0,-0.713 -0.578,-1.292 -1.292,-1.292 -0.714,0 -1.292,0.579 -1.292,1.292 0,0.713 0.578,1.292 1.292,1.292 C -0.578,1.292 0,0.713 0,0"
               style="fill:#00a1ff;fill-opacity:1;fill-rule:nonzero;stroke:none"
               id="path970" />
          </g>
          <g
             id="g972"
             transform="translate(507.652,417.2365)">
            <path
               d="m 0,0 c 0,-0.713 -0.578,-1.292 -1.292,-1.292 -0.714,0 -1.292,0.579 -1.292,1.292 0,0.713 0.578,1.292 1.292,1.292 C -0.578,1.292 0,0.713 0,0"
               style="fill:#00a1ff;fill-opacity:1;fill-rule:nonzero;stroke:none"
               id="path974" />
          </g>
          <g
             id="g976"
             transform="translate(695.36,474.9943)">
            <path
               d="m 0,0 c 0,-0.713 -0.578,-1.292 -1.292,-1.292 -0.713,0 -1.291,0.579 -1.291,1.292 0,0.713 0.578,1.292 1.291,1.292 C -0.578,1.292 0,0.713 0,0"
               style="fill:#00a1ff;fill-opacity:1;fill-rule:nonzero;stroke:none"
               id="path978" />
          </g>
          <g
             id="g980"
             transform="translate(670.652,212.737)">
            <path
               d="m 0,0 c 0,-0.714 -0.578,-1.292 -1.292,-1.292 -0.714,0 -1.292,0.578 -1.292,1.292 0,0.713 0.578,1.291 1.292,1.291 C -0.578,1.291 0,0.713 0,0"
               style="fill:#363c40;fill-opacity:1;fill-rule:nonzero;stroke:none"
               id="path982" />
          </g>
          <g
             id="g984"
             transform="translate(576.1158,62.653)">
            <path
               d="m 0,0 c 0,-0.713 -0.578,-1.291 -1.292,-1.291 -0.713,0 -1.291,0.578 -1.291,1.291 0,0.714 0.578,1.292 1.291,1.292 C -0.578,1.292 0,0.714 0,0"
               style="fill:#363c40;fill-opacity:1;fill-rule:nonzero;stroke:none"
               id="path986" />
          </g>
          <g
             id="g988"
             transform="translate(138.6515,473.7023)">
            <path
               d="m 0,0 c 0,-0.713 -0.578,-1.292 -1.292,-1.292 -0.713,0 -1.291,0.579 -1.291,1.292 0,0.713 0.578,1.292 1.291,1.292 C -0.578,1.292 0,0.713 0,0"
               style="fill:#363c40;fill-opacity:1;fill-rule:nonzero;stroke:none"
               id="path990" />
          </g>
          <g
             id="g992"
             transform="translate(55.36,60.945)">
            <path
               d="m 0,0 c 0,-0.714 -0.578,-1.292 -1.292,-1.292 -0.713,0 -1.291,0.578 -1.291,1.292 0,0.714 0.578,1.292 1.291,1.292 C -0.578,1.292 0,0.714 0,0"
               style="fill:#363c40;fill-opacity:1;fill-rule:nonzero;stroke:none"
               id="path994" />
          </g>
          <g
             id="g996"
             transform="translate(273.9435,91.7028)">
            <path
               d="m 0,0 c 0,-0.714 -0.579,-1.292 -1.292,-1.292 -0.713,0 -1.291,0.578 -1.291,1.292 0,0.713 0.578,1.291 1.291,1.291 C -0.579,1.291 0,0.713 0,0"
               style="fill:#363c40;fill-opacity:1;fill-rule:nonzero;stroke:none"
               id="path998" />
          </g>
        </g>
      </g>
    </g>
  </g>
</svg>
